<svg xmlns="http://www.w3.org/2000/svg" xmlns:xlink="http://www.w3.org/1999/xlink" width="1024" zoomAndPan="magnify" viewBox="0 0 768 767.999994" height="1024" preserveAspectRatio="xMidYMid meet" version="1.0"><defs><g/><clipPath id="794c9d0c76"><rect x="0" width="687" y="0" height="378"/></clipPath><clipPath id="e9f9a99bc8"><path d="M 520.828125 302.484375 L 683.855469 302.484375 L 683.855469 465.515625 L 520.828125 465.515625 Z M 520.828125 302.484375 " clip-rule="nonzero"/></clipPath><clipPath id="4b6973c19a"><path d="M 602.34375 302.484375 C 557.324219 302.484375 520.828125 338.980469 520.828125 384 C 520.828125 429.019531 557.324219 465.515625 602.34375 465.515625 C 647.363281 465.515625 683.855469 429.019531 683.855469 384 C 683.855469 338.980469 647.363281 302.484375 602.34375 302.484375 Z M 602.34375 302.484375 " clip-rule="nonzero"/></clipPath><clipPath id="5880c60aba"><path d="M 0.828125 0.484375 L 163.855469 0.484375 L 163.855469 163.515625 L 0.828125 163.515625 Z M 0.828125 0.484375 " clip-rule="nonzero"/></clipPath><clipPath id="661c7c56c1"><path d="M 82.34375 0.484375 C 37.324219 0.484375 0.828125 36.980469 0.828125 82 C 0.828125 127.019531 37.324219 163.515625 82.34375 163.515625 C 127.363281 163.515625 163.855469 127.019531 163.855469 82 C 163.855469 36.980469 127.363281 0.484375 82.34375 0.484375 Z M 82.34375 0.484375 " clip-rule="nonzero"/></clipPath><clipPath id="30c4875284"><rect x="0" width="164" y="0" height="164"/></clipPath><clipPath id="08660955ce"><path d="M 517 315.671875 L 688 315.671875 L 688 465.671875 L 517 465.671875 Z M 517 315.671875 " clip-rule="nonzero"/></clipPath></defs><rect x="-76.8" width="921.6" fill="#ffffff" y="-76.799999" height="921.599993" fill-opacity="1"/><rect x="-76.8" width="921.6" fill="#ff751f" y="-76.799999" height="921.599993" fill-opacity="1"/><g transform="matrix(1, 0, 0, 1, 41, 195)"><g clip-path="url(#794c9d0c76)"><g fill="#ffffff" fill-opacity="1"><g transform="translate(0.410852, 299.136546)"><g><path d="M 117.453125 -217.234375 C 145.753906 -217.234375 167.648438 -210.46875 183.140625 -196.9375 C 198.640625 -183.40625 206.390625 -164.242188 206.390625 -139.453125 C 206.390625 -113.210938 198.640625 -92.8125 183.140625 -78.25 C 167.648438 -63.6875 145.753906 -56.40625 117.453125 -56.40625 L 87.390625 -56.40625 L 87.390625 0 L 15.5 0 L 15.5 -217.234375 Z M 113.734375 -110.9375 C 121.578125 -110.9375 127.617188 -113.257812 131.859375 -117.90625 C 136.097656 -122.5625 138.21875 -129.019531 138.21875 -137.28125 C 138.21875 -145.34375 136.097656 -151.59375 131.859375 -156.03125 C 127.617188 -160.46875 121.578125 -162.6875 113.734375 -162.6875 L 87.390625 -162.6875 L 87.390625 -110.9375 Z M 113.734375 -110.9375 "/></g></g></g><g fill="#ffffff" fill-opacity="1"><g transform="translate(212.997398, 299.136546)"><g><path d="M 221.578125 0 L 140.375 0 L 114.34375 -56.40625 L 87.390625 -56.40625 L 87.390625 0 L 15.5 0 L 15.5 -217.234375 L 120.546875 -217.234375 C 150.085938 -217.234375 172.914062 -210.46875 189.03125 -196.9375 C 205.144531 -183.40625 213.203125 -164.242188 213.203125 -139.453125 C 213.203125 -123.753906 210.257812 -110.066406 204.375 -98.390625 C 198.488281 -86.710938 189.96875 -77.46875 178.8125 -70.65625 Z M 87.390625 -162.6875 L 87.390625 -110.9375 L 120.546875 -110.9375 C 128.398438 -110.9375 134.441406 -113.257812 138.671875 -117.90625 C 142.910156 -122.5625 145.03125 -129.019531 145.03125 -137.28125 C 145.03125 -145.34375 142.910156 -151.59375 138.671875 -156.03125 C 134.441406 -160.46875 128.398438 -162.6875 120.546875 -162.6875 Z M 87.390625 -162.6875 "/></g></g></g><g fill="#ffffff" fill-opacity="1"><g transform="translate(437.669718, 299.136546)"><g><path d="M 123.953125 -221.875 C 146.679688 -221.875 167.132812 -217.019531 185.3125 -207.3125 C 203.488281 -197.601562 217.691406 -184.175781 227.921875 -167.03125 C 238.148438 -149.882812 243.265625 -130.566406 243.265625 -109.078125 C 243.265625 -87.390625 238.148438 -67.867188 227.921875 -50.515625 C 217.691406 -33.160156 203.488281 -19.578125 185.3125 -9.765625 C 167.132812 0.046875 146.679688 4.953125 123.953125 4.953125 C 101.234375 4.953125 80.78125 0.046875 62.59375 -9.765625 C 44.414062 -19.578125 30.210938 -33.160156 19.984375 -50.515625 C 9.753906 -67.867188 4.640625 -87.390625 4.640625 -109.078125 C 4.640625 -130.773438 9.753906 -150.195312 19.984375 -167.34375 C 30.210938 -184.488281 44.414062 -197.863281 62.59375 -207.46875 C 80.78125 -217.070312 101.234375 -221.875 123.953125 -221.875 Z M 124.890625 -162.078125 C 116.617188 -162.078125 108.921875 -159.75 101.796875 -155.09375 C 94.671875 -150.445312 88.988281 -144.09375 84.75 -136.03125 C 80.519531 -127.976562 78.40625 -118.890625 78.40625 -108.765625 C 78.40625 -98.648438 80.519531 -89.507812 84.75 -81.34375 C 88.988281 -73.1875 94.671875 -66.726562 101.796875 -61.96875 C 108.921875 -57.21875 116.617188 -54.84375 124.890625 -54.84375 C 133.148438 -54.84375 140.6875 -57.164062 147.5 -61.8125 C 154.320312 -66.46875 159.695312 -72.925781 163.625 -81.1875 C 167.550781 -89.457031 169.515625 -98.648438 169.515625 -108.765625 C 169.515625 -118.890625 167.550781 -128.03125 163.625 -136.1875 C 159.695312 -144.351562 154.320312 -150.707031 147.5 -155.25 C 140.6875 -159.800781 133.148438 -162.078125 124.890625 -162.078125 Z M 124.890625 -162.078125 "/></g></g></g></g></g><g clip-path="url(#e9f9a99bc8)"><g clip-path="url(#4b6973c19a)"><g transform="matrix(1, 0, 0, 1, 520, 302)"><g clip-path="url(#30c4875284)"><g clip-path="url(#5880c60aba)"><g clip-path="url(#661c7c56c1)"><path fill="#ffffff" d="M 0.828125 0.484375 L 163.855469 0.484375 L 163.855469 163.515625 L 0.828125 163.515625 Z M 0.828125 0.484375 " fill-opacity="1" fill-rule="nonzero"/></g></g></g></g></g></g><g clip-path="url(#08660955ce)"><path fill="#ff751f" d="M 557.046875 461.308594 C 558.523438 463.859375 561.246094 465.449219 564.199219 465.449219 L 641.046875 465.449219 C 643.996094 465.449219 646.722656 463.859375 648.195312 461.308594 L 686.675781 394.730469 C 688.097656 392.179688 688.097656 389 686.675781 386.445312 L 648.195312 319.871094 C 646.722656 317.316406 643.996094 315.726562 641.046875 315.726562 L 564.199219 315.726562 C 561.246094 315.726562 558.523438 317.316406 557.046875 319.871094 L 518.566406 386.445312 C 517.148438 389 517.148438 392.179688 518.566406 394.730469 Z M 602.621094 344.277344 C 628.160156 344.277344 648.933594 365.046875 648.933594 390.589844 C 648.933594 416.128906 628.160156 436.902344 602.621094 436.902344 C 577.082031 436.902344 556.308594 416.128906 556.308594 390.589844 C 556.308594 365.046875 577.082031 344.277344 602.621094 344.277344 Z M 602.621094 344.277344 " fill-opacity="1" fill-rule="nonzero"/></g><path fill="#ff751f" d="M 632.417969 390.589844 C 632.417969 391.566406 632.371094 392.539062 632.273438 393.507812 C 632.179688 394.480469 632.035156 395.445312 631.847656 396.402344 C 631.65625 397.359375 631.417969 398.304688 631.136719 399.238281 C 630.851562 400.171875 630.523438 401.089844 630.148438 401.992188 C 629.777344 402.894531 629.359375 403.773438 628.898438 404.636719 C 628.441406 405.496094 627.9375 406.332031 627.398438 407.144531 C 626.855469 407.953125 626.273438 408.738281 625.65625 409.492188 C 625.035156 410.246094 624.382812 410.96875 623.691406 411.660156 C 623 412.347656 622.277344 413.003906 621.523438 413.621094 C 620.769531 414.242188 619.988281 414.820312 619.175781 415.363281 C 618.363281 415.90625 617.527344 416.40625 616.667969 416.867188 C 615.808594 417.328125 614.925781 417.746094 614.023438 418.117188 C 613.121094 418.492188 612.207031 418.820312 611.269531 419.101562 C 610.335938 419.386719 609.390625 419.621094 608.433594 419.8125 C 607.476562 420.003906 606.511719 420.148438 605.542969 420.242188 C 604.570312 420.339844 603.597656 420.386719 602.621094 420.386719 C 601.644531 420.386719 600.671875 420.339844 599.699219 420.242188 C 598.730469 420.148438 597.765625 420.003906 596.808594 419.8125 C 595.851562 419.621094 594.90625 419.386719 593.972656 419.101562 C 593.039062 418.820312 592.121094 418.492188 591.21875 418.117188 C 590.316406 417.746094 589.4375 417.328125 588.574219 416.867188 C 587.714844 416.40625 586.878906 415.90625 586.066406 415.363281 C 585.257812 414.820312 584.472656 414.242188 583.71875 413.621094 C 582.964844 413.003906 582.242188 412.347656 581.550781 411.660156 C 580.863281 410.96875 580.207031 410.246094 579.589844 409.492188 C 578.96875 408.738281 578.386719 407.953125 577.847656 407.144531 C 577.304688 406.332031 576.804688 405.496094 576.34375 404.636719 C 575.882812 403.773438 575.464844 402.894531 575.09375 401.992188 C 574.71875 401.089844 574.390625 400.171875 574.109375 399.238281 C 573.824219 398.304688 573.585938 397.359375 573.398438 396.402344 C 573.207031 395.445312 573.0625 394.480469 572.96875 393.507812 C 572.871094 392.539062 572.824219 391.566406 572.824219 390.589844 C 572.824219 389.613281 572.871094 388.640625 572.96875 387.667969 C 573.0625 386.695312 573.207031 385.734375 573.398438 384.777344 C 573.585938 383.820312 573.824219 382.875 574.109375 381.9375 C 574.390625 381.003906 574.71875 380.085938 575.09375 379.1875 C 575.464844 378.285156 575.882812 377.402344 576.34375 376.542969 C 576.804688 375.683594 577.304688 374.847656 577.847656 374.035156 C 578.386719 373.222656 578.96875 372.441406 579.589844 371.6875 C 580.207031 370.929688 580.863281 370.210938 581.550781 369.519531 C 582.242188 368.828125 582.964844 368.175781 583.71875 367.554688 C 584.472656 366.9375 585.257812 366.355469 586.066406 365.8125 C 586.878906 365.273438 587.714844 364.769531 588.574219 364.308594 C 589.4375 363.851562 590.316406 363.433594 591.21875 363.058594 C 592.121094 362.6875 593.039062 362.359375 593.972656 362.074219 C 594.90625 361.792969 595.851562 361.554688 596.808594 361.363281 C 597.765625 361.175781 598.730469 361.03125 599.699219 360.933594 C 600.671875 360.839844 601.644531 360.792969 602.621094 360.792969 C 603.597656 360.792969 604.570312 360.839844 605.542969 360.933594 C 606.511719 361.03125 607.476562 361.175781 608.433594 361.363281 C 609.390625 361.554688 610.335938 361.792969 611.269531 362.074219 C 612.207031 362.359375 613.121094 362.6875 614.023438 363.058594 C 614.925781 363.433594 615.808594 363.851562 616.667969 364.308594 C 617.527344 364.769531 618.363281 365.273438 619.175781 365.8125 C 619.988281 366.355469 620.769531 366.9375 621.523438 367.554688 C 622.277344 368.175781 623 368.828125 623.691406 369.519531 C 624.382812 370.210938 625.035156 370.929688 625.65625 371.6875 C 626.273438 372.441406 626.855469 373.222656 627.398438 374.035156 C 627.9375 374.847656 628.441406 375.683594 628.898438 376.542969 C 629.359375 377.402344 629.777344 378.285156 630.148438 379.1875 C 630.523438 380.085938 630.851562 381.003906 631.136719 381.9375 C 631.417969 382.875 631.65625 383.820312 631.847656 384.777344 C 632.035156 385.734375 632.179688 386.695312 632.273438 387.667969 C 632.371094 388.640625 632.417969 389.613281 632.417969 390.589844 Z M 632.417969 390.589844 " fill-opacity="1" fill-rule="nonzero"/></svg>